<?xml version="1.0" encoding="iso-8859-1"?>
<!-- Generator: Adobe Illustrator 18.1.1, SVG Export Plug-In . SVG Version: 6.00 Build 0)  -->
<svg version="1.1" id="Capa_1" xmlns="http://www.w3.org/2000/svg" xmlns:xlink="http://www.w3.org/1999/xlink" x="0px" y="0px"
	 viewBox="0 0 1024.497 1024.497" style="enable-background:new 0 0 1024.497 1024.497;" xml:space="preserve">
<g>
	<path d="M303.104,531.489c-11.77,11.763-11.77,30.846,0,42.609l187.307,187.307c5.877,5.885,13.599,8.828,21.305,8.828
		c7.706,0,15.427-2.943,21.312-8.828l187.307-187.307c11.723-11.731,11.77-30.744,0.078-42.522
		c-11.692-11.794-30.497-11.904-42.314-0.267l-135.85,133.798V30.132c0-16.643-13.864-30.132-30.5-30.132
		c-16.643,0-30.5,13.489-30.5,30.132v637.219L345.546,531.489C333.776,519.719,314.874,519.719,303.104,531.489z"/>
	<path d="M648.079,156.908c-15.882-5.085-32.816,3.665-37.885,19.492c-5.085,15.851,3.641,32.816,19.492,37.901
		c159.497,51.154,266.671,198.167,266.671,365.825c0,211.797-172.303,384.108-384.108,384.108
		c-211.797,0-384.108-172.311-384.108-384.108c0-167.658,107.166-314.67,266.671-365.825c15.843-5.085,24.569-22.05,19.492-37.901
		c-5.093-15.843-22.081-24.569-37.901-19.492C191.866,216.097,67.876,386.172,67.876,580.125
		c0,245.029,199.344,444.373,444.373,444.373s444.373-199.344,444.373-444.373C956.621,386.172,832.624,216.097,648.079,156.908z"/>
</g>
</svg>
